<svg width="792" height="792" viewBox="0 0 792 792" fill="none" xmlns="http://www.w3.org/2000/svg">
<g clip-path="url(#clip0_32_2)">
<g clip-path="url(#clip1_32_2)">
<path d="M296.655 382.362C286.727 377.438 277.557 372.06 269.026 366.147C161.782 291.816 172.528 143.881 320.17 70.9958C418.302 22.319 511.453 38.3194 562.281 73.5484C610.225 106.779 620.263 157.229 560.196 186.661C497.284 217.501 461.406 270.548 441.377 315.101C392.577 301.201 338.031 319.073 307.465 363.172C303.278 369.342 299.655 375.725 296.655 382.362ZM506.971 361.365C571.878 317.765 641.398 318.454 691.985 353.517C739.749 386.622 770.414 450.301 764.686 536.074C753.27 702.044 618.882 784.295 565.17 747.067C550.09 736.615 541.381 716.97 543.755 686.596C548.647 616.787 520.85 559.365 492.424 519.918C497.956 514.502 503.073 508.532 507.654 501.923C537.802 458.425 535.882 402.038 506.971 361.365ZM289.446 462.572C296.348 490.214 312.862 515.535 338.036 532.983C362.669 550.057 391.506 556.702 419.275 553.98C429.17 705.37 285.392 788.85 138.452 690.563L134.126 687.565C-37.1035 568.885 6.75135 348.285 119.445 423.992C177.322 463.039 240.913 467.535 289.446 462.572ZM338.046 384.368C355.328 359.434 384.596 345.566 414.725 348.037C444.853 350.509 471.391 368.813 484.238 396.217C497.085 423.622 494.414 455.835 477.133 480.769C450.399 519.34 397.623 529.012 359.232 502.402C320.84 475.793 311.354 422.879 338.046 384.368Z" fill="white"/>
</g>
</g>
<defs>
<clipPath id="clip0_32_2">
<rect width="792" height="792" fill="white"/>
</clipPath>
<clipPath id="clip1_32_2">
<rect width="792" height="792" fill="white"/>
</clipPath>
</defs>
</svg>
